# xmcd CD database file generated by Grip 3.3.1
# 
# Track frame offsets:
#       150
#       12822
#       29381
#       42793
#       59840
#       72973
#       85571
#       97852
#       115993
#       136267
#       151420
#       163010
#       172411
#       186223
#       192037
#       205161
#       214730
#       222401
#       239089
#       246694
#       264569
#       270570
#       288521
#       300956
#       317246
#       342852
# 
# Disc length: 4734 seconds
# 
# Revision: 2
# Processed by: cddbd v1.5.2PL0 Copyright (c) Steve Scherf et al.
# Submitted via: Grip 3.3.1
# 
DISCID=87127c1a
DTITLE=itzhak Perlman - Violin Encores
DYEAR=2005
DGENRE=Classical
TTITLE0=Elgar: Salut d'amour
TTITLE1=Suk: Un poco triste
TTITLE2=Suk: Burleska
TTITLE3=De Taeye: Humoresque
TTITLE4=Rachmaninov: Prelude Op.23 No.5 (arr. Heifetz)
TTITLE5=Mendelssohn: Sweet Remembrance (arr. Heifetz)
TTITLE6=Fiocco: Allegro (transcr. Fuessl)
TTITLE7=Debussy: La plus que lente (Valse) (transcr. Roques)
TTITLE8=Sarasate: Jota Navarra
TTITLE9=Faure: Berceuse
TTITLE10=Gershwin: It Ain't Necessarily So (arr. Heifetz)
TTITLE11=Arensky: Serenade in G
TTITLE12=Rachmaninov: Melody
TTITLE13=Rimsky-Korsakov: Flight of the Bumblebee (arr. Heifetz)
TTITLE14=Debussy: Menuet (transcr: Dushkin)
TTITLE15=Drigo: Valse bluette (transcr and ed. Heifetz)
TTITLE16=Rachmaninov: It's Peaceful Here (arr: Heifetz)
TTITLE17=Ravel: Valses nobles et sentimentales 6&7 (arr. Heifetz)
TTITLE18=Gershwin: 3 Preludes (arr. Heifetz) - 1
TTITLE19=Gershwin: 3 Preludes (arr. Heifetz) - 2
TTITLE20=Gershwin: 3 Preludes (arr. Heifetz) - 3
TTITLE21=Albeniz: Sevilla (arr: Heifetz)
TTITLE22=Schumann: Prophet Bird (arr. Heifetz)
TTITLE23=Rameau: Rigaudon (arr. Heifetz)
TTITLE24=Achron: Hebrew Melody (arr. Heifetz)
TTITLE25=Debussy: Golliwogg's Cake-Walk (arr. Heifetz)
EXTD=
EXTT0=
EXTT1=
EXTT2=
EXTT3=
EXTT4=
EXTT5=
EXTT6=
EXTT7=
EXTT8=
EXTT9=
EXTT10=
EXTT11=
EXTT12=
EXTT13=
EXTT14=
EXTT15=
EXTT16=
EXTT17=
EXTT18=
EXTT19=
EXTT20=
EXTT21=
EXTT22=
EXTT23=
EXTT24=
EXTT25=
PLAYORDER=
